<?xml version="1.0" encoding="UTF-8" standalone="no"?>
<!-- Created with Inkscape (http://www.inkscape.org/) -->

<svg
   width="210mm"
   height="297mm"
   viewBox="0 0 210 297"
   version="1.1"
   id="svg5"
   xml:space="preserve"
   inkscape:version="1.2.2 (b0a8486541, 2022-12-01)"
   sodipodi:docname="skiing.svg"
   xmlns:inkscape="http://www.inkscape.org/namespaces/inkscape"
   xmlns:sodipodi="http://sodipodi.sourceforge.net/DTD/sodipodi-0.dtd"
   xmlns="http://www.w3.org/2000/svg"
   xmlns:svg="http://www.w3.org/2000/svg"><sodipodi:namedview
     id="namedview7"
     pagecolor="#ffffff"
     bordercolor="#666666"
     borderopacity="1.0"
     inkscape:showpageshadow="2"
     inkscape:pageopacity="0.0"
     inkscape:pagecheckerboard="0"
     inkscape:deskcolor="#d1d1d1"
     inkscape:document-units="mm"
     showgrid="false"
     inkscape:zoom="2.3786088"
     inkscape:cx="316.99202"
     inkscape:cy="607.49796"
     inkscape:window-width="1803"
     inkscape:window-height="1133"
     inkscape:window-x="0"
     inkscape:window-y="0"
     inkscape:window-maximized="1"
     inkscape:current-layer="layer1" /><defs
     id="defs2" /><g
     inkscape:label="Layer 1"
     inkscape:groupmode="layer"
     id="layer1"><path
       style="fill:#000000;stroke-width:0.0846667"
       d="m 68.610231,201.07315 c -3.919383,-0.0251 -7.144921,-0.0646 -7.167862,-0.0879 -0.09484,-0.0963 -0.09261,-26.01275 0.0044,-51.39267 0.103719,-27.12601 0.144163,-31.37142 0.299774,-31.46759 0.11297,-0.0698 25.168105,-0.0515 37.569471,0.0276 5.564716,0.0354 11.044406,0.0659 12.177086,0.0677 1.93861,0.003 2.06651,0.0129 2.18017,0.16765 0.10119,0.13774 0.12318,1.04238 0.13584,5.588 0.008,2.98301 0.0102,5.49985 0.004,5.59298 -0.006,0.0931 -0.0359,8.74184 -0.0667,19.21934 -0.0508,17.30637 -0.0435,19.11479 0.0803,19.75785 0.15896,0.82568 0.18396,2.25835 0.041,2.34673 -0.0653,0.0403 -0.0748,0.2088 -0.0304,0.53417 0.0357,0.26138 0.0783,1.6373 0.0947,3.05758 0.0164,1.42029 0.0649,4.10634 0.10782,5.969 0.0771,3.34723 0.0545,8.37366 -0.0487,10.83734 -0.0293,0.6985 -0.0666,2.59537 -0.0829,4.21526 -0.0357,3.54791 -0.12491,5.35399 -0.27161,5.5007 -0.0834,0.0834 -4.04609,0.10605 -19.002959,0.10861 -10.39369,0.002 -22.104384,-0.0173 -26.023765,-0.0423 z M 113.5073,200.8769 c 0.10686,-0.10688 0.19692,-2.26247 0.22717,-5.43732 0.0155,-1.62983 0.055,-3.59198 0.0878,-4.36033 0.10342,-2.42672 0.12273,-7.20439 0.043,-10.62567 -0.0423,-1.8161 -0.0913,-4.46405 -0.10871,-5.88433 -0.0174,-1.42028 -0.059,-2.8343 -0.0924,-3.14225 -0.0416,-0.38392 -0.0307,-0.57843 0.0346,-0.61883 0.1419,-0.0877 0.1179,-1.35263 -0.0413,-2.1774 -0.12417,-0.64322 -0.13219,-2.4561 -0.0878,-19.85422 0.0268,-10.5305 0.0547,-19.1792 0.062,-19.21933 0.0601,-0.33287 -0.0264,-10.93706 -0.0901,-11.03731 -0.0681,-0.10725 -0.41347,-0.12755 -2.2212,-0.13054 -1.17729,-0.002 -6.82684,-0.0317 -12.554536,-0.066 -9.063322,-0.0544 -28.63586,-0.0914 -34.849219,-0.066 l -2.083217,0.009 -0.05669,2.13784 c -0.159419,6.01151 -0.311626,80.26305 -0.164836,80.41217 0.127452,0.12947 51.766418,0.19014 51.895548,0.061 z m -48.692308,-2.49476 c -0.789163,-0.0607 -0.720279,0.65648 -0.720279,-7.49907 v -7.19728 l 0.214959,-0.3668 c 0.118228,-0.20174 0.318253,-0.4189 0.4445,-0.48257 0.126247,-0.0637 1.086791,-0.40609 2.134541,-0.76091 1.04775,-0.35482 3.25755,-1.10752 4.910667,-1.67266 3.466769,-1.18518 3.7356,-1.25941 3.94165,-1.08841 0.195251,0.16205 0.117304,1.08277 -0.187775,2.21805 -0.221429,0.824 -0.222781,0.84519 -0.08234,1.29071 0.187795,0.59576 0.53304,0.88984 1.456419,1.24059 0.423395,0.16083 0.783216,0.35365 0.849928,0.45547 0.07177,0.10953 0.147659,0.64093 0.199902,1.39978 0.04631,0.67277 0.129057,1.45633 0.18387,1.74126 0.0595,0.30931 0.07006,0.58224 0.0262,0.67733 -0.04041,0.0876 -0.07498,0.36884 -0.07682,0.62495 -0.0032,0.4422 -0.0149,0.467 -0.2324,0.4921 -0.16863,0.0195 -0.373425,-0.0842 -0.776431,-0.39313 -0.586299,-0.44938 -1.245603,-0.7195 -1.650113,-0.6761 -0.235137,0.0252 -0.187299,0.0785 0.82196,0.91439 5.445135,4.51001 6.993532,5.77382 7.213003,5.88732 0.186892,0.0966 0.451031,0.12542 0.987068,0.10753 0.759347,-0.0254 1.03708,-0.17051 0.513992,-0.26864 -0.154696,-0.029 -0.48827,-0.1891 -0.741274,-0.35572 -0.82859,-0.54569 -2.613618,-1.97814 -2.848058,-2.2855 -0.272534,-0.35731 -0.531758,-1.21417 -0.887916,-2.93496 l -0.261571,-1.2638 0.143583,-0.79744 c 0.243022,-1.34971 0.49192,-1.4304 1.474632,-0.47806 0.493038,0.47779 0.610415,0.647 0.723322,1.0427 0.184368,0.64616 0.86537,1.80908 1.672444,2.85595 0.785421,1.0188 0.873632,1.2073 0.945172,2.01976 0.02938,0.3337 0.07606,0.66573 0.103735,0.73784 0.02767,0.0721 0.989727,0.68421 2.137903,1.36023 4.556784,2.68292 4.710177,2.78062 4.737706,3.01745 0.01399,0.1204 -0.02411,0.25966 -0.08467,0.30947 -0.07676,0.0631 -4.162598,0.10119 -13.487447,0.12562 -7.357534,0.0193 -13.567558,0.0204 -13.800055,0.003 z m 27.155728,-0.246 c 0.256649,-0.15861 -0.189056,-0.44849 -5.37818,-3.49778 -0.734712,-0.43174 -1.372283,-0.85308 -1.416825,-0.9363 -0.04454,-0.0832 -0.105661,-0.43119 -0.13582,-0.77324 -0.07308,-0.82883 -0.158762,-1.01302 -0.946583,-2.03493 -0.797182,-1.03405 -1.485777,-2.2051 -1.670723,-2.84129 -0.145244,-0.49962 -0.564676,-1.01927 -1.150225,-1.42506 -0.32683,-0.2265 -0.353929,-0.23185 -0.457421,-0.0903 -0.06051,0.0828 -0.171156,0.48318 -0.245891,0.88984 -0.133588,0.72691 -0.132265,0.75717 0.07847,1.79361 0.324513,1.59605 0.618482,2.62874 0.846704,2.97444 0.199818,0.30269 1.920257,1.70236 2.824331,2.29776 0.24623,0.16217 0.616246,0.33728 0.822257,0.38916 0.389196,0.098 0.447428,0.20046 0.256706,0.45171 -0.0935,0.12318 -0.250831,0.14817 -0.932845,0.14817 -0.568416,0 -0.896802,-0.0395 -1.069233,-0.1287 -0.214182,-0.11075 -2.112929,-1.66162 -7.301035,-5.96337 -0.641284,-0.53172 -1.152656,-1.0073 -1.136382,-1.05685 0.04937,-0.15031 0.805542,-0.15106 1.256563,-0.001 0.233346,0.0775 0.667501,0.32735 0.964791,0.55521 0.71546,0.54837 0.834748,0.54655 0.75799,-0.0115 -0.04028,-0.29288 -0.02555,-0.46562 0.0472,-0.55328 0.0824,-0.0993 0.08456,-0.22501 0.0098,-0.56899 -0.0528,-0.24286 -0.134889,-1.00626 -0.182424,-1.69647 -0.04754,-0.6902 -0.121687,-1.3208 -0.164781,-1.40132 -0.04309,-0.0805 -0.40887,-0.27195 -0.812834,-0.4254 -0.880838,-0.33459 -1.326848,-0.70424 -1.51461,-1.25529 -0.176981,-0.51941 -0.168773,-0.69317 0.07424,-1.57159 0.113183,-0.40912 0.231867,-1.00853 0.263742,-1.33202 0.08534,-0.86602 0.245619,-0.86916 -2.418964,0.0473 -0.90805,0.31233 -3.003546,1.02444 -4.656658,1.58247 -4.119367,1.39056 -3.855794,1.2809 -4.106337,1.70842 l -0.211672,0.36121 v 7.11536 c 0,5.66455 0.02202,7.13363 0.107983,7.20498 0.05939,0.0493 0.297516,0.10375 0.529167,0.12103 0.607686,0.0453 26.993093,-0.0284 27.069524,-0.0757 z m 3.745863,0.22922 c -0.154179,-0.0626 -1.113405,-0.57642 -4.401536,-2.35795 -1.604006,-0.86905 -2.042105,-1.21397 -2.384858,-1.87758 -0.173165,-0.33527 -0.476356,-0.72939 -0.781589,-1.016 -0.445916,-0.4187 -0.521092,-0.53991 -0.710525,-1.14558 -0.292726,-0.93593 -1.043374,-2.94777 -1.258693,-3.37347 -0.09788,-0.19353 -0.324134,-0.51154 -0.502782,-0.70669 -0.178649,-0.19516 -0.350503,-0.46186 -0.381899,-0.59267 -0.09748,-0.40615 -0.28456,-0.70454 -0.781536,-1.24652 -0.809212,-0.8825 -1.457334,-1.9186 -2.435435,-3.89334 -0.366196,-0.73934 -0.457017,-1.00558 -0.457017,-1.33979 0,-0.39214 0.02913,-0.44763 0.486834,-0.92754 0.482051,-0.50544 0.827654,-0.74698 1.068799,-0.74698 0.06859,0 0.238682,0.0959 0.377983,0.21312 l 0.253274,0.21311 1.298389,-0.075 c 0.714114,-0.0413 1.336488,-0.0608 1.383055,-0.0433 0.111009,0.0416 1.092717,-0.17848 1.524,-0.34164 0.47397,-0.17929 0.780179,-0.16954 0.886021,0.0282 0.05353,0.10002 0.08765,0.96565 0.08765,2.2237 0,2.76292 0.196255,7.23129 0.392838,8.94416 0.04468,0.38933 0.06844,0.43539 0.171484,0.33234 0.101354,-0.10135 0.106184,-0.42889 0.03164,-2.14529 -0.11371,-2.6182 -0.255314,-7.34698 -0.256427,-8.56323 -8.55e-4,-0.93486 0.0031,-0.95403 0.253131,-1.23884 0.188911,-0.21516 0.253879,-0.37321 0.253528,-0.61678 -10e-4,-0.70692 -0.23742,-1.13182 -0.629698,-1.13182 -0.07331,0 -0.361239,0.20955 -0.63983,0.46566 -0.49308,0.45331 -0.519474,0.46559 -0.994097,0.4628 -0.303342,-0.002 -0.615535,-0.0647 -0.826236,-0.16646 -0.186267,-0.09 -0.452967,-0.1651 -0.592667,-0.16694 -0.394702,-0.005 -0.848765,-0.15627 -1.012087,-0.33674 -0.08166,-0.0902 -0.258357,-0.18819 -0.392661,-0.21769 -0.305974,-0.0672 -0.584919,-0.41266 -0.584919,-0.72439 0,-0.13067 -0.03706,-0.26049 -0.08237,-0.28849 -0.0453,-0.028 -0.122022,-0.19818 -0.170491,-0.37818 -0.04847,-0.18 -0.220955,-0.52037 -0.383302,-0.75638 -0.303519,-0.44124 -0.381775,-0.85483 -0.189341,-1.00067 0.05821,-0.0441 0.258234,-0.12366 0.4445,-0.17676 0.271887,-0.0775 0.42365,-0.21012 0.769648,-0.67247 0.506728,-0.67715 0.63607,-1.21778 0.416858,-1.74243 -0.164364,-0.39338 -0.163574,-0.77008 0.0019,-0.90741 0.187465,-0.15559 1.889318,-0.0593 4.507404,0.25507 3.952896,0.47462 6.851068,1.04913 10.517856,2.08496 2.328881,0.65788 10.822361,3.48954 11.000191,3.66737 0.13835,0.13835 0.15138,0.82899 0.20529,10.88515 0.0634,11.81759 0.0946,11.05481 -0.45766,11.16527 -0.39959,0.0799 -14.8251,0.0551 -15.024618,-0.0258 z M 110.6538,198.2224 c 0.14718,-0.0294 0.30467,-0.12278 0.34997,-0.20744 0.053,-0.0991 0.062,-3.94609 0.0253,-10.7918 -0.047,-8.76784 -0.0772,-10.65799 -0.17154,-10.75233 -0.1528,-0.1528 -8.85867,-3.03765 -10.948816,-3.6281 -3.668681,-1.03636 -6.569462,-1.61126 -10.517856,-2.0845 -1.176896,-0.14105 -2.624543,-0.28057 -3.216992,-0.31002 -1.254682,-0.0624 -1.298786,-0.0342 -1.048748,0.66978 0.247188,0.69597 0.128059,1.23835 -0.436842,1.98889 -0.398697,0.52972 -0.519513,0.63286 -0.855735,0.73051 -0.507202,0.14732 -0.53667,0.33244 -0.143824,0.90353 0.16519,0.24015 0.340003,0.5839 0.388472,0.7639 0.04847,0.18001 0.125191,0.35019 0.170491,0.37818 0.0453,0.028 0.08237,0.15448 0.08237,0.28107 0,0.31573 0.205893,0.58249 0.499326,0.64694 0.134814,0.0296 0.311928,0.12766 0.393587,0.2179 0.163322,0.18047 0.617384,0.33154 1.012087,0.33674 0.1397,0.002 0.4064,0.077 0.592666,0.16693 0.186267,0.09 0.519973,0.16488 0.74157,0.16646 0.372152,0.003 0.44156,-0.0327 0.909431,-0.46279 0.543714,-0.49985 0.817029,-0.57864 1.164065,-0.33557 0.211752,0.14832 0.362563,0.62425 0.373705,1.17935 0.0062,0.31045 -0.04055,0.43437 -0.257077,0.68098 -0.259687,0.29576 -0.264678,0.31783 -0.263866,1.16635 0.0011,1.14011 0.142755,5.81753 0.257909,8.51553 l 0.09165,2.14731 -0.189952,0.20219 c -0.195508,0.20811 -0.414434,0.269 -0.414434,0.11526 0,-0.0478 -0.05645,-0.81934 -0.125449,-1.7145 -0.180774,-2.34537 -0.297672,-5.38291 -0.297786,-7.73781 -5.4e-5,-1.12543 -0.02323,-2.10651 -0.05149,-2.18016 -0.06326,-0.16487 -0.229235,-0.16447 -0.668275,0.002 -0.576408,0.21805 -1.32525,0.34991 -2.032,0.3578 -0.372533,0.004 -1.059868,0.0322 -1.52741,0.0623 -0.732163,0.0472 -0.866254,0.0353 -0.966704,-0.0857 -0.347173,-0.41832 -0.643874,-0.32834 -1.338206,0.40581 -0.595789,0.62996 -0.594484,0.82605 0.01367,2.05388 0.978101,1.97474 1.626223,3.01085 2.435435,3.89335 0.496976,0.54198 0.684053,0.84036 0.781536,1.24652 0.0314,0.13081 0.207256,0.40075 0.390798,0.59987 0.460658,0.49976 0.787641,1.26914 1.917194,4.51107 0.08279,0.23763 0.27149,0.48018 0.575839,0.74019 0.309052,0.26404 0.542668,0.56632 0.736269,0.95269 0.402635,0.80354 0.289737,0.72952 4.981449,3.26607 0.860861,0.46542 1.641911,0.87734 1.735667,0.91538 0.198666,0.0806 14.454836,0.10592 14.852546,0.0264 z M 64.298335,182.43435 c -0.150972,-0.16682 -0.161289,-0.33877 -0.161289,-2.68816 0,-1.38047 0.01905,-3.64214 0.04233,-5.02594 0.03619,-2.15106 0.0619,-2.53553 0.17722,-2.65069 0.160016,-0.1598 3.063398,-0.64091 7.104114,-1.1772 4.599009,-0.6104 10.388166,-0.93596 10.667088,-0.59988 0.1685,0.20303 0.03316,0.49914 -0.410486,0.8981 -1.505795,1.35412 -1.338303,1.25624 -2.73312,1.59717 -1.012635,0.24751 -1.056006,0.26745 -1.340939,0.61648 -0.16195,0.19838 -0.579227,0.6533 -0.92728,1.01095 -0.348052,0.35764 -0.659809,0.72321 -0.692794,0.81238 -0.03298,0.0892 -0.08765,0.85263 -0.121472,1.6966 -0.05254,1.31093 -0.08334,1.55425 -0.211428,1.67016 -0.138063,0.12495 -0.959818,0.43642 -5.838236,2.21285 -2.807154,1.0222 -5.081415,1.80541 -5.242468,1.80541 -0.08247,0 -0.222534,-0.0802 -0.311243,-0.17823 z m 2.054955,-0.57779 c 0.923133,-0.32269 2.459473,-0.87124 3.41409,-1.21901 0.954616,-0.34777 2.592916,-0.94415 3.640666,-1.32529 1.04775,-0.38115 1.985358,-0.74436 2.083574,-0.80714 0.16687,-0.10666 0.182631,-0.21538 0.240475,-1.65859 0.03404,-0.84945 0.09283,-1.6258 0.130629,-1.72522 0.0378,-0.0994 0.349452,-0.46434 0.692558,-0.81092 0.343106,-0.34658 0.775464,-0.81181 0.960797,-1.03386 0.333932,-0.40009 0.346409,-0.40602 1.385134,-0.65923 0.576491,-0.14053 1.140635,-0.30395 1.253652,-0.36317 0.467996,-0.2452 1.919194,-1.6163 1.869467,-1.76627 -0.139493,-0.42069 -7.695737,0.0979 -12.637952,0.86734 -0.2794,0.0435 -1.384301,0.21394 -2.455334,0.37875 -2.528729,0.38912 -2.4099,0.36079 -2.499307,0.59595 -0.04188,0.11016 -0.08722,2.36769 -0.100756,5.01672 -0.02036,3.98479 -0.0045,4.84063 0.0916,4.95653 0.06391,0.0771 0.146821,0.1401 0.184244,0.1401 0.03742,0 0.823334,-0.26401 1.746467,-0.58669 z m 43.31883,-6.4364 c -0.49404,-0.13844 -1.11676,-0.3886 -2.69374,-1.08215 -0.37253,-0.16383 -0.82973,-0.35277 -1.016,-0.41985 -0.18627,-0.0671 -0.72587,-0.30762 -1.19913,-0.53453 -0.95804,-0.45935 -1.1341,-0.66987 -0.79191,-0.94696 0.10421,-0.0844 0.23779,-0.15342 0.29686,-0.15342 0.0591,0 0.31747,-0.0962 0.57425,-0.21374 0.39669,-0.18161 0.47423,-0.25478 0.51587,-0.48683 0.1129,-0.62909 0.14603,-1.39601 0.074,-1.71243 l -0.0771,-0.33867 -0.13863,0.32241 c -0.0763,0.17733 -0.21056,0.42498 -0.29848,0.55034 -0.0879,0.12535 -0.20793,0.38032 -0.2667,0.56659 -0.0588,0.18626 -0.18788,0.42836 -0.28692,0.53798 -0.16877,0.18681 -0.21993,0.19582 -0.81507,0.14357 -0.34925,-0.0307 -0.71254,-0.0748 -0.80732,-0.0981 -0.1215,-0.0299 -0.27559,0.0589 -0.52252,0.30093 -0.27849,0.273 -0.41268,0.34328 -0.65537,0.34328 -0.16784,0 -1.09476,-0.21195 -2.059811,-0.471 -0.965055,-0.25905 -2.257735,-0.60223 -2.872624,-0.76263 -1.365414,-0.35617 -1.539225,-0.42032 -1.605288,-0.59248 -0.110347,-0.28756 0.224987,-0.43197 1.33638,-0.5755 0.587645,-0.0759 1.440057,-0.25238 1.894247,-0.39219 0.97157,-0.29907 1.285612,-0.31275 1.947976,-0.0849 0.71615,0.24639 0.76985,0.23199 1.02585,-0.27517 0.126,-0.24962 0.57662,-0.81211 1.02783,-1.28299 0.53271,-0.55593 0.86967,-0.98821 0.99994,-1.28278 0.42806,-0.96791 1.06534,-1.36744 1.1208,-0.70266 0.0219,0.26211 -0.10475,0.91365 -0.28911,1.48771 -0.0267,0.083 0.16555,-0.23972 0.4271,-0.71712 0.26156,-0.47741 0.492,-0.97271 0.5121,-1.10067 0.20814,-1.32509 0.22374,-1.37152 0.55626,-1.65615 0.37892,-0.32434 1.00125,-0.65084 1.24055,-0.65084 0.0924,0 0.2262,0.0667 0.29721,0.14817 0.24041,0.27588 1.5058,3.24496 1.5058,3.53317 0,0.25894 -0.59382,0.72133 -0.92637,0.72133 -0.18999,0 -0.2591,0.0395 -0.25948,0.14816 -2.6e-4,0.0815 -0.0637,0.26247 -0.14095,0.40217 -0.10948,0.19803 -0.13772,0.45923 -0.12815,1.18533 0.007,0.51224 0.0366,1.11905 0.0663,1.34847 l 0.054,0.41713 0.11391,-0.33134 c 0.23915,-0.69565 0.63351,-0.71149 1.0077,-0.0405 0.21309,0.38212 0.30843,0.47279 0.54883,0.52195 0.33472,0.0685 0.42051,0.16643 0.80611,0.9206 0.43352,0.84788 0.77076,1.27 1.01466,1.27 0.30335,0 0.38345,0.22992 0.38345,1.10066 0,0.99456 -0.0573,1.10339 -0.57448,1.09148 -0.21955,-0.005 -0.6348,-0.0752 -0.92278,-0.1559 z m 1.27654,-0.13817 c 0.0283,-0.0737 0.0514,-0.43249 0.0514,-0.79741 0,-0.79785 -0.0429,-0.93133 -0.29923,-0.93133 -0.25957,0 -0.60613,-0.4289 -1.10389,-1.36619 -0.21784,-0.41018 -0.45797,-0.76235 -0.53364,-0.7826 -0.0757,-0.0202 -0.23371,-0.058 -0.3512,-0.0838 -0.15536,-0.0342 -0.27634,-0.17487 -0.44358,-0.51587 -0.12647,-0.25788 -0.26575,-0.46887 -0.3095,-0.46887 -0.15447,0 -0.34229,0.26586 -0.43634,0.61764 -0.0524,0.19581 -0.137,0.407 -0.18811,0.4693 -0.15459,0.18842 -0.22841,-0.16425 -0.31267,-1.49377 -0.0745,-1.17539 -0.0515,-1.65571 0.0878,-1.83684 0.0358,-0.0466 0.0994,-0.21802 0.14124,-0.381 0.065,-0.25301 0.11871,-0.30252 0.36746,-0.33867 0.31518,-0.0458 0.84169,-0.39305 0.84169,-0.55513 0,-0.0946 -0.73925,-1.87808 -1.21862,-2.94007 -0.12154,-0.26925 -0.27648,-0.51084 -0.34431,-0.53688 -0.15106,-0.058 -0.78522,0.2502 -1.17347,0.57022 -0.22778,0.18776 -0.30649,0.33547 -0.38375,0.72016 -0.0534,0.26617 -0.0972,0.58962 -0.0972,0.71878 0,0.22972 -0.82664,1.92019 -1.08236,2.21342 -0.31725,0.36378 -0.35639,0.0261 -0.10297,-0.88837 0.18108,-0.65344 0.2175,-1.08013 0.0922,-1.08013 -0.13526,0 -0.52562,0.52601 -0.72509,0.97705 -0.12623,0.28543 -0.4708,0.72626 -0.99642,1.2748 -0.44819,0.46773 -0.90199,1.03369 -1.02629,1.27995 -0.31283,0.61976 -0.41704,0.65599 -1.16005,0.40328 -0.782671,-0.26621 -0.899645,-0.26347 -1.89998,0.0444 -0.45419,0.13981 -1.306601,0.3164 -1.894246,0.39242 -1.139631,0.14742 -1.490363,0.29364 -1.079255,0.44994 0.126602,0.0481 0.733275,0.21875 1.348163,0.37915 0.614888,0.1604 1.907569,0.50358 2.872623,0.76263 0.965055,0.25905 1.853865,0.471 1.975135,0.471 0.14586,0 0.33698,-0.11765 0.5646,-0.34756 0.30779,-0.31087 0.37634,-0.34262 0.64953,-0.30084 0.16798,0.0257 0.53415,0.0717 0.81371,0.10214 0.58374,0.0636 0.70514,-0.017 0.88968,-0.59103 0.0589,-0.18313 0.21609,-0.50491 0.34937,-0.71508 0.13328,-0.21016 0.24233,-0.42909 0.24233,-0.48649 0,-0.0574 0.0612,-0.16557 0.13597,-0.24035 0.20581,-0.20581 0.35169,-0.0261 0.41952,0.51683 0.0696,0.55681 -0.0868,1.88943 -0.23717,2.02108 -0.095,0.0832 -0.49106,0.26286 -1.18448,0.53732 -0.13743,0.0544 -0.21367,0.1371 -0.18801,0.20395 0.0445,0.11594 1.21174,0.70622 1.94927,0.98575 0.22948,0.087 0.72203,0.29167 1.09457,0.45487 0.37253,0.1632 1.01321,0.44017 1.42373,0.6155 1.33607,0.57059 2.35465,0.77608 2.46188,0.49665 z m -0.45016,-3.11529 c -0.26134,-0.42286 -0.32959,-1.10605 -0.13228,-1.32408 0.36169,-0.39967 0.80858,2.5e-4 0.79472,0.71121 -0.0119,0.61098 -0.0946,0.85193 -0.30278,0.8822 -0.12598,0.0183 -0.23004,-0.0596 -0.35966,-0.26933 z m 0.44863,-0.14803 c 0.0934,-0.46685 0.057,-0.81224 -0.10671,-1.01446 -0.14129,-0.17448 -0.17638,-0.18323 -0.30539,-0.0762 -0.17804,0.14775 -0.12517,0.72427 0.10161,1.10818 0.1856,0.31419 0.24481,0.31084 0.31049,-0.0176 z m -46.629153,-1.35322 c -0.123218,-0.17592 -0.138543,-0.60682 -0.138107,-3.88321 5.08e-4,-3.77639 0.04862,-4.52326 0.313325,-4.86337 0.08352,-0.10731 0.316245,-0.41174 0.517171,-0.67651 l 0.365319,-0.4814 -0.0576,-0.66036 c -0.06193,-0.71 0.0524,-1.11627 0.485214,-1.7241 0.14135,-0.19851 0.194497,-0.40054 0.205038,-0.77944 0.0078,-0.28131 0.09481,-0.75457 0.193305,-1.05167 0.09849,-0.29711 0.179075,-0.55501 0.179075,-0.57312 0,-0.0181 -0.101179,-0.008 -0.22484,0.0235 -0.164387,0.0412 -0.254728,0.0156 -0.335998,-0.0956 -0.103536,-0.14159 -0.117168,-0.13621 -0.19882,0.0786 -0.04822,0.12681 -0.187629,0.58013 -0.309808,1.00736 -0.315711,1.10398 -0.452455,1.36946 -0.705383,1.36946 -0.266849,0 -0.322682,-0.19898 -0.332602,-1.18533 -0.0074,-0.73454 0.0074,-0.79648 0.409539,-1.7188 0.593225,-1.3605 2.488955,-4.7767 2.910592,-5.24504 0.265047,-0.2944 0.528457,-0.24552 0.774128,0.14364 0.432378,0.68494 1.666354,3.64006 1.785757,4.27653 0.0375,0.19991 0.0073,0.30103 -0.125948,0.42162 -0.09641,0.0872 -0.175284,0.2213 -0.175284,0.2979 0,0.17369 -0.162543,0.34248 -0.3298,0.34248 -0.06963,0 -0.236175,-0.10477 -0.370099,-0.23283 -0.201508,-0.19268 -0.319112,-0.23284 -0.681967,-0.23284 -0.241157,0 -0.466459,0.0381 -0.500671,0.0847 -0.03421,0.0466 -0.06279,0.62321 -0.0635,1.28143 -0.0013,1.19012 -8.5e-5,1.19755 0.214686,1.33828 0.125627,0.0823 0.337318,0.40777 0.506019,0.77796 0.159519,0.35004 0.324106,0.61538 0.365748,0.58965 0.04164,-0.0257 0.09942,-0.16531 0.128388,-0.31017 0.02897,-0.14486 0.127,-0.4314 0.217842,-0.63676 0.139017,-0.31427 0.203022,-0.37339 0.404273,-0.37339 0.131509,0 0.37928,0.0952 0.550602,0.21167 0.171323,0.11641 0.326799,0.21166 0.345503,0.21166 0.0187,0 -2.54e-4,-0.21867 -0.0422,-0.48593 -0.103507,-0.66006 0.0042,-0.90363 0.364586,-0.82448 0.237086,0.0521 0.295904,0.0168 0.65503,-0.39272 0.961812,-1.09679 1.571856,-1.68353 1.750408,-1.68353 0.261755,0 0.406774,0.19317 0.830693,1.10653 0.749492,1.61483 0.912309,2.33511 0.522788,2.31275 -0.09313,-0.005 -0.226484,-0.033 -0.296334,-0.0614 -0.07578,-0.0308 -0.238332,0.0498 -0.403024,0.19979 l -0.276024,0.25144 0.203974,0.50198 c 0.112185,0.27609 0.32104,0.60966 0.464124,0.74127 0.218112,0.20061 0.299165,0.39662 0.501577,1.21294 l 0.241424,0.97367 0.307692,-0.0274 c 0.276665,-0.0246 0.331536,0.007 0.544141,0.31429 0.154266,0.22291 0.302198,0.34278 0.425614,0.34488 0.331466,0.006 0.664968,0.44011 1.17226,1.52721 0.793599,1.70064 0.714481,1.60867 1.383847,1.60867 0.485867,0 0.596592,0.0288 0.753637,0.19595 0.101251,0.10778 0.184092,0.24265 0.184092,0.29971 0,0.33511 0.483902,0.96399 1.292371,1.67956 0.409011,0.362 0.50857,0.64663 0.299362,0.85584 -0.07296,0.073 -0.639743,0.10184 -2.010833,0.10244 -1.876426,8.5e-4 -3.62115,0.0871 -5.126567,0.25347 -3.592925,0.3971 -5.348576,0.64279 -7.596339,1.06306 -2.337015,0.43694 -2.301665,0.43411 -2.467397,0.1975 z m 2.38273,-0.3689 c 2.298346,-0.42682 4.686947,-0.75779 7.681006,-1.0643 0.465667,-0.0477 1.056217,-0.11003 1.312333,-0.13857 0.256117,-0.0285 1.646303,-0.075 3.089303,-0.10333 2.97505,-0.0583 2.98216,-0.0603 2.312909,-0.6575 -0.825328,-0.73641 -1.338211,-1.40075 -1.338211,-1.73339 0,-0.0564 -0.06306,-0.17222 -0.140123,-0.25738 -0.109703,-0.12122 -0.265706,-0.15483 -0.718604,-0.15483 -0.577067,0 -0.578963,-7.6e-4 -0.775117,-0.3175 -0.108149,-0.17463 -0.418386,-0.79375 -0.689417,-1.37583 -0.51402,-1.10395 -0.770152,-1.43934 -1.09921,-1.43934 -0.134583,0 -0.265833,-0.10599 -0.420297,-0.3394 -0.213547,-0.32269 -0.240899,-0.33679 -0.555663,-0.28645 -0.375709,0.0601 -0.306722,0.19421 -0.679645,-1.32148 -0.139996,-0.569 -0.229587,-0.76523 -0.427915,-0.93729 -0.228701,-0.19842 -0.676826,-1.10924 -0.67315,-1.3682 8.47e-4,-0.0591 0.158335,-0.23777 0.34999,-0.39697 0.312719,-0.25976 0.373359,-0.28005 0.591141,-0.19785 0.213843,0.0807 0.242676,0.0726 0.242676,-0.0685 0,-0.41138 -1.094659,-2.84376 -1.318444,-2.92964 -0.145342,-0.0558 -0.631568,0.4063 -1.700422,1.61593 -0.385576,0.43636 -0.466733,0.48959 -0.695252,0.45605 -0.325922,-0.0478 -0.363651,0.0466 -0.263779,0.66024 0.04306,0.26456 0.0581,0.51368 0.03343,0.5536 -0.07842,0.12688 -0.288494,0.0789 -0.609344,-0.13909 -0.171322,-0.11642 -0.374714,-0.21167 -0.451981,-0.21167 -0.145646,0 -0.317768,0.34839 -0.492234,0.9963 -0.07824,0.29057 -0.133633,0.35837 -0.292766,0.35837 -0.163461,0 -0.247321,-0.11328 -0.501718,-0.67777 -0.214068,-0.475 -0.369681,-0.70704 -0.520137,-0.77559 l -0.214685,-0.0978 0.0012,-1.27758 c 0.0015,-1.66326 5.93e-4,-1.66033 0.495573,-1.6526 0.215749,0.003 0.464659,0.001 0.553131,-0.004 0.08847,-0.006 0.285207,0.11017 0.437185,0.25747 0.276703,0.26819 0.460289,0.27474 0.460289,0.0164 0,-0.0757 0.07801,-0.22075 0.17335,-0.32224 l 0.17335,-0.18452 -0.246615,-0.70994 c -0.538843,-1.55117 -1.557679,-3.78009 -1.764078,-3.8593 -0.193441,-0.0742 -0.318293,0.0932 -1.199251,1.60794 -1.151701,1.9803 -1.482598,2.60562 -1.968677,3.72038 -0.369268,0.84686 -0.415946,1.0213 -0.416636,1.55697 -4.24e-4,0.33178 0.02333,0.7238 0.0528,0.87114 0.108668,0.54334 0.261147,0.25036 0.811041,-1.55834 0.203881,-0.6706 0.323691,-0.93846 0.428822,-0.95871 0.08024,-0.0154 0.146476,0.0223 0.147189,0.084 0.003,0.25829 0.130259,0.33729 0.368508,0.22874 0.357552,-0.16292 0.418379,-0.0137 0.230568,0.5656 -0.315276,0.97246 -0.35922,1.20983 -0.258731,1.39759 0.07891,0.14744 0.03942,0.2663 -0.246193,0.74119 -0.493067,0.81981 -0.535404,0.9741 -0.47073,1.71552 l 0.05674,0.6504 -0.369893,0.48759 c -0.203442,0.26818 -0.438227,0.57539 -0.521744,0.6827 -0.08352,0.10731 -0.188073,0.41627 -0.232344,0.68657 -0.116334,0.71032 -0.106298,7.61056 0.01139,7.83046 0.07356,0.13745 0.148348,0.1637 0.359833,0.12631 0.146834,-0.026 1.001519,-0.1836 1.899299,-0.35033 z m 24.318007,-0.33985 c -2.017887,-0.32496 -4.416818,-0.58094 -6.392334,-0.6821 -1.279936,-0.0655 -1.596598,-0.18029 -2.511197,-0.91 -0.96203,-0.76755 -1.182248,-1.02956 -1.631427,-1.94105 l -0.429376,-0.8713 -0.508,-0.0218 c -0.788674,-0.0338 -0.870225,-0.0722 -1.173922,-0.55195 -0.506331,-0.79988 -1.154412,-2.30489 -1.154412,-2.68085 0,-0.27276 0.270416,-0.90488 1.279359,-2.99064 0.703647,-1.45462 1.353876,-2.74946 1.444955,-2.8774 0.306641,-0.43078 0.831687,-0.38112 0.831687,0.0787 0,0.12337 0.03597,0.18406 0.08948,0.15099 0.187931,-0.11614 0.504468,0.0553 0.672384,0.36408 l 0.171941,0.31623 -0.05325,-0.59267 c -0.03398,-0.37817 -0.106463,-0.65394 -0.200285,-0.762 -0.08087,-0.0931 -0.170566,-0.236 -0.199327,-0.3175 -0.02876,-0.0815 -0.109298,-0.14816 -0.178971,-0.14816 -0.144634,0 -0.301969,-0.25241 -0.301969,-0.48444 0,-0.16983 1.265143,-2.31498 1.54936,-2.62706 0.191292,-0.21005 0.497218,-0.24997 0.635815,-0.083 0.196701,0.23701 1.309398,2.74989 1.350224,3.0493 0.0406,0.29778 0.02476,0.32764 -0.22354,0.42136 -0.146982,0.0555 -0.250106,0.14553 -0.229164,0.2001 0.02094,0.0546 0.08351,0.33017 0.139045,0.61244 0.09767,0.49643 0.09394,0.52157 -0.113987,0.76867 -0.213103,0.25326 -0.213901,0.25999 -0.09256,0.78015 0.181128,0.77643 0.287762,0.95654 0.583761,0.98601 0.172662,0.0172 0.353699,0.13856 0.568318,0.381 l 0.314945,0.35577 -0.08211,-0.29577 c -0.112341,-0.40467 -0.103132,-0.87701 0.01949,-0.99963 0.152802,-0.1528 0.446071,-0.12232 0.614581,0.0639 0.08237,0.091 0.274785,0.48021 0.427594,0.86488 0.152811,0.38467 0.310399,0.70831 0.350198,0.71921 0.0398,0.0109 0.238574,-0.1878 0.441724,-0.44155 0.53219,-0.66473 0.859663,-0.61115 1.278123,0.2091 0.202695,0.39731 0.217333,0.70617 0.05524,1.16559 -0.100364,0.28446 -0.100364,0.37434 0,0.61303 0.06468,0.15384 0.118453,0.39915 0.119489,0.54515 0.0019,0.26514 0.002,0.26524 0.148166,0.084 0.336836,-0.41788 0.744125,-0.32798 0.990631,0.21867 0.08527,0.1891 0.196876,0.343 0.248011,0.34201 0.05114,-9.9e-4 0.202298,-0.15629 0.335914,-0.34509 0.297262,-0.42004 0.583006,-0.57284 0.774318,-0.41406 0.09203,0.0764 0.116924,0.18503 0.08045,0.35111 -0.04649,0.21165 -0.02865,0.24051 0.148635,0.24051 0.496162,0 0.531843,0.47404 0.09498,1.26187 -0.221535,0.39951 -0.260324,0.51495 -0.136277,0.40557 0.283007,-0.24953 0.691133,-1.0996 0.836073,-1.74141 0.124007,-0.54912 0.123972,-0.63221 -4.23e-4,-0.99728 -0.184546,-0.54161 -0.174695,-0.61612 0.121939,-0.92217 0.227184,-0.23439 0.242194,-0.27862 0.127,-0.37423 -0.181589,-0.1507 -0.16308,-0.4752 0.05251,-0.92054 0.230505,-0.47616 0.835175,-1.11448 1.055734,-1.11448 0.09198,0 0.296486,0.13336 0.454455,0.29634 0.15797,0.16298 0.3281,0.29633 0.378066,0.29633 0.04997,0 0.216746,-0.22901 0.370622,-0.50891 0.595126,-1.08253 0.969866,-1.28351 1.182275,-0.63409 0.09485,0.29001 0.09047,0.41774 -0.03051,0.889 -0.0777,0.30269 -0.136269,0.74429 -0.130152,0.98134 0.01024,0.39672 -0.0337,0.49968 -0.552165,1.29404 -0.309808,0.47466 -0.547292,0.87903 -0.52774,0.89858 0.01955,0.0196 0.266633,-0.11057 0.54907,-0.28915 0.497055,-0.31428 0.618179,-0.48837 0.622816,-0.89514 0.0011,-0.0931 0.09564,-0.35983 0.210175,-0.59267 0.169955,-0.34549 0.209073,-0.55566 0.212752,-1.143 0.0033,-0.53099 0.04883,-0.81735 0.173555,-1.09226 0.145319,-0.32029 0.152553,-0.3916 0.05154,-0.508 -0.06463,-0.0745 -0.142132,-0.38802 -0.172225,-0.69676 l -0.05472,-0.56136 0.401686,-0.53931 c 0.220927,-0.29662 0.67347,-0.81857 1.00565,-1.15989 0.945703,-0.97173 1.124106,-0.86687 1.776096,1.04391 0.307354,0.90077 0.317619,0.96886 0.312699,2.07434 -0.0068,1.53553 -0.09994,1.94733 -0.440282,1.94733 -0.07886,0 -0.261447,-0.13335 -0.405742,-0.29633 -0.151487,-0.17111 -0.341884,-0.29633 -0.450555,-0.29633 -0.184565,0 -0.187082,0.0143 -0.130276,0.74083 0.03186,0.40746 0.08057,0.9419 0.108241,1.18766 0.04888,0.43405 0.05496,0.44262 0.212674,0.29989 0.195737,-0.17714 0.36572,-0.0975 0.618113,0.28954 0.09313,0.14282 0.268213,0.28029 0.389066,0.30547 0.139468,0.0291 0.309568,0.18405 0.465667,0.42428 l 0.245932,0.37849 -0.028,-1.0977 c -0.0293,-1.14843 0.019,-1.34313 0.33274,-1.34313 0.0863,0 0.21396,0.0869 0.28357,0.19315 0.1775,0.2709 1.90934,5.36864 1.90934,5.62022 0,0.41452 -0.46543,0.99707 -1.07384,1.34407 -0.19016,0.10846 -0.34624,0.3202 -0.53018,0.71927 -0.42317,0.91808 -0.53066,0.95819 -1.807076,0.67428 -0.457961,-0.10186 -0.538461,-0.0944 -1.227667,0.11441 -0.405662,0.12288 -1.004269,0.2785 -1.330235,0.34582 -0.325967,0.0673 -1.145117,0.30172 -1.820334,0.52091 -1.12717,0.36589 -1.30737,0.40058 -2.201333,0.42386 -0.550361,0.0143 -1.286545,-0.025 -1.693333,-0.0905 z m 3.81,-0.50336 c 0.675216,-0.21879 1.494366,-0.45289 1.820333,-0.5202 0.325967,-0.0673 0.929667,-0.2245 1.341557,-0.34929 0.70907,-0.21484 0.77885,-0.22114 1.312333,-0.11858 1.299913,0.24992 1.231423,0.27498 1.633673,-0.59772 0.22131,-0.48014 0.33944,-0.62954 0.63451,-0.80246 0.43049,-0.25228 0.85416,-0.71265 0.92852,-1.00895 0.0375,-0.1496 -0.20443,-0.97143 -0.81599,-2.77128 -0.47816,-1.40724 -0.92296,-2.66582 -0.98846,-2.79684 -0.23562,-0.47141 -0.32021,-0.2261 -0.3329,0.96545 -0.007,0.62449 -0.0162,1.18307 -0.0212,1.24128 -0.0196,0.22835 -0.23278,0.0822 -0.474739,-0.32547 -0.183408,-0.30901 -0.319733,-0.44111 -0.490513,-0.47531 -0.141322,-0.0283 -0.2839,-0.139 -0.354251,-0.27504 -0.214296,-0.4144 -0.343393,-0.46187 -0.536229,-0.19714 -0.09435,0.12951 -0.195,0.21202 -0.223672,0.18335 -0.09755,-0.0976 -0.213616,-1.05268 -0.235841,-1.94073 l -0.02216,-0.88549 0.279691,-0.0269 c 0.231376,-0.0222 0.328934,0.0269 0.564746,0.28433 0.15678,0.17117 0.321984,0.28839 0.367121,0.26049 0.131843,-0.0815 0.19334,-0.61315 0.201915,-1.74562 0.0077,-1.01192 -0.0059,-1.09918 -0.310112,-1.98967 -0.396068,-1.15951 -0.599788,-1.56633 -0.784357,-1.56633 -0.174061,0 -1.106995,0.94686 -1.647793,1.67239 -0.385732,0.51749 -0.393561,0.54032 -0.348432,1.016 0.02539,0.26763 0.09883,0.52891 0.163193,0.58061 0.158498,0.12731 0.147398,0.28624 -0.05045,0.72225 -0.124135,0.27357 -0.167955,0.55564 -0.169334,1.09 -0.0014,0.56123 -0.0401,0.79227 -0.174494,1.04302 -0.09495,0.17716 -0.209353,0.51571 -0.25423,0.75235 -0.101548,0.53546 -0.14938,0.59231 -0.836228,0.99391 -0.594935,0.34785 -0.93824,0.48234 -0.93824,0.36756 0,-0.0389 0.30779,-0.54625 0.683978,-1.12754 0.612069,-0.94577 0.67969,-1.09016 0.643189,-1.3734 -0.02243,-0.17408 0.02828,-0.58502 0.112693,-0.9132 0.11531,-0.44828 0.13334,-0.66963 0.0725,-0.88999 -0.04454,-0.16131 -0.115355,-0.2933 -0.157362,-0.2933 -0.10063,0 -0.418238,0.43508 -0.750906,1.02862 -0.358198,0.6391 -0.466995,0.66676 -0.910462,0.23153 -0.356218,-0.3496 -0.364386,-0.35259 -0.57857,-0.21226 -0.321278,0.21051 -0.822288,1.01044 -0.837594,1.33734 -0.01011,0.21598 0.03033,0.29967 0.17591,0.36406 0.185811,0.0822 0.183117,0.0897 -0.157708,0.43692 l -0.346749,0.35331 0.147738,0.4448 c 0.129713,0.39053 0.134969,0.51625 0.04308,1.03046 -0.05757,0.32211 -0.233137,0.84246 -0.390162,1.15633 -0.306023,0.61171 -1.294398,1.73751 -1.364273,1.55397 -0.02232,-0.0586 0.194116,-0.52415 0.480967,-1.0345 0.594366,-1.05746 0.627758,-1.29879 0.185585,-1.34122 -0.267553,-0.0257 -0.28004,-0.0421 -0.258147,-0.33867 0.02645,-0.35828 -0.120019,-0.38762 -0.375663,-0.0753 -0.633739,0.77436 -0.673936,0.78542 -0.962498,0.26498 -0.10127,-0.18264 -0.223624,-0.37652 -0.271898,-0.43084 -0.139786,-0.15729 -0.397864,-0.0375 -0.526375,0.2444 -0.156711,0.34372 -0.272314,0.31916 -0.357059,-0.0759 -0.0382,-0.17807 -0.124969,-0.497 -0.192815,-0.70873 -0.108957,-0.34002 -0.108262,-0.42774 0.006,-0.75148 0.168585,-0.47782 0.163227,-0.62417 -0.03723,-1.0171 -0.193716,-0.37971 -0.393285,-0.59813 -0.546517,-0.59813 -0.05956,0 -0.275512,0.20955 -0.479882,0.46567 -0.53863,0.67501 -0.664831,0.64339 -1.002468,-0.25119 -0.319588,-0.84676 -0.507399,-1.11425 -0.723981,-1.03114 -0.131056,0.0503 -0.143178,0.11866 -0.08882,0.50095 0.102906,0.72369 0.09678,0.85971 -0.03979,0.88374 -0.06985,0.0123 -0.255275,-0.14859 -0.412055,-0.35751 -0.193175,-0.25742 -0.347861,-0.37985 -0.479909,-0.37985 -0.360935,0 -0.460705,-0.1002 -0.61995,-0.62263 -0.29018,-0.95199 -0.296112,-1.1067 -0.05348,-1.39504 l 0.216883,-0.25775 -0.130076,-0.56088 c -0.169543,-0.73106 -0.172329,-0.71378 0.132269,-0.81996 0.226525,-0.079 0.256056,-0.12291 0.216282,-0.32177 -0.07258,-0.36293 -1.267903,-2.89575 -1.388417,-2.942 -0.180166,-0.0691 -0.321002,0.10937 -1.0838,1.37368 -0.772353,1.28015 -0.829196,1.49893 -0.416376,1.60254 0.122798,0.0308 0.208633,0.11363 0.208633,0.20127 0,0.0819 0.0713,0.20995 0.158434,0.28456 0.116015,0.0993 0.174541,0.30755 0.218597,0.77769 0.03309,0.35312 0.03575,0.68154 0.0059,0.72983 -0.107731,0.17431 -0.30384,0.0819 -0.442318,-0.20854 -0.143806,-0.30157 -0.162861,-0.31337 -0.531774,-0.32949 -0.162717,-0.007 -0.220055,-0.0649 -0.254,-0.25619 -0.058,-0.3268 -0.208573,-0.36306 -0.444102,-0.10692 -0.300167,0.32642 -2.774738,5.51758 -2.774738,5.82085 0,0.25943 0.689858,1.84806 1.082039,2.49175 0.30038,0.49301 0.408457,0.55033 1.037687,0.55033 0.677838,0 0.700857,0.0204 1.166675,1.03225 0.358891,0.7796 0.625646,1.09713 1.534489,1.82653 0.902412,0.72425 1.223271,0.84039 2.502777,0.9059 1.976668,0.10122 4.380239,0.35777 6.392333,0.68228 0.395817,0.0638 1.119717,0.10427 1.608667,0.0898 0.788728,-0.0233 1.027471,-0.0711 2.116667,-0.42405 z m 15.641896,-1.42459 c -0.15493,-0.11841 -0.76018,-1.05768 -0.95551,-1.48282 -0.0698,-0.15197 -0.26987,-0.51392 -0.44455,-0.80433 -0.17468,-0.29041 -0.41743,-0.73757 -0.53943,-0.99368 -0.42535,-0.89287 -0.57907,-1.23925 -0.57907,-1.30483 0,-0.0363 -0.0737,-0.16949 -0.16371,-0.29594 -0.09,-0.12644 -0.19073,-0.34187 -0.22378,-0.47873 -0.0559,-0.23173 -0.35388,-0.86496 -0.52896,-1.12425 -0.0624,-0.0925 -0.13835,-0.0819 -0.41067,0.057 -0.63477,0.32384 -1.68112,1.17083 -2.4037,1.94573 -0.90406,0.96951 -1.1266,0.99824 -1.43291,0.185 -0.14705,-0.39041 -0.74884,-1.75962 -0.89884,-2.04507 -0.065,-0.1236 -0.11812,-0.29505 -0.11814,-0.381 -5e-5,-0.18167 -0.27241,-0.92222 -0.51163,-1.39113 -0.0911,-0.1786 -0.16566,-0.41546 -0.16566,-0.52636 0,-0.1109 -0.24042,-0.80774 -0.53427,-1.54854 -0.48895,-1.23268 -0.664235,-1.748 -0.918919,-2.70157 -0.145616,-0.54521 -0.25996,-0.83715 -0.386162,-0.98594 -0.147077,-0.1734 -0.52712,-1.23644 -0.529533,-1.48118 -9.82e-4,-0.0996 -0.07567,-0.27107 -0.16598,-0.381 l -0.164194,-0.19988 -0.603552,0.59266 c -0.717413,0.70448 -1.23483,1.37519 -2.288192,2.96612 -1.155498,1.74518 -1.170466,1.75649 -1.732868,1.30955 -0.17579,-0.1397 -0.342953,-0.25289 -0.371475,-0.25153 -0.10701,0.005 -0.979839,1.18644 -1.843556,2.4952 -0.49171,0.74507 -0.972648,1.44039 -1.068752,1.54517 -0.235986,0.25727 -0.516647,0.24111 -0.735177,-0.0423 -0.256038,-0.3321 -0.866628,-1.2516 -1.032041,-1.55416 -0.07718,-0.14118 -0.198358,-0.32081 -0.269274,-0.39917 -0.07092,-0.0784 -0.1696,-0.23766 -0.219296,-0.35399 -0.126324,-0.2957 -0.280482,-0.52858 -0.429429,-0.6487 -0.104198,-0.084 -0.18207,-0.049 -0.433727,0.19521 -0.233765,0.22684 -0.364674,0.29102 -0.550333,0.26981 -0.216998,-0.0248 -0.291808,-0.12494 -0.684899,-0.91683 -0.242711,-0.48895 -0.442736,-0.93149 -0.4445,-0.98342 -0.0018,-0.0519 -0.0781,-0.18963 -0.169642,-0.306 -0.09154,-0.11637 -0.224196,-0.38172 -0.294793,-0.58966 -0.0706,-0.20794 -0.470756,-1.03097 -0.889242,-1.82896 -0.418487,-0.798 -0.825611,-1.65221 -0.904723,-1.89826 -0.161516,-0.50234 -0.603423,-1.33637 -0.708071,-1.33637 -0.06888,0 -0.580393,0.77171 -1.290748,1.94733 -0.978811,1.61992 -2.848309,5.23776 -3.656145,7.07535 -0.182869,0.41598 -0.388799,0.823 -0.457622,0.90449 -0.145559,0.17235 -0.462549,0.19512 -0.589248,0.0423 -0.128877,-0.15542 -0.669734,-1.25664 -0.738103,-1.50283 -0.03233,-0.11642 -0.148581,-0.40217 -0.258336,-0.635 -0.109754,-0.23284 -0.370489,-0.86149 -0.579409,-1.397 -0.20892,-0.53552 -0.556435,-1.39277 -0.772254,-1.905 -0.21582,-0.51224 -0.451956,-1.07337 -0.524748,-1.24697 -0.07279,-0.1736 -0.202515,-0.33791 -0.288276,-0.36513 -0.218417,-0.0693 -0.664665,0.29286 -1.247124,1.0122 -0.383296,0.47338 -0.539989,0.60527 -0.742945,0.62539 -0.144866,0.0144 -0.299884,-0.0259 -0.354927,-0.0923 -0.08998,-0.10842 -0.82571,-1.76719 -1.634674,-3.68553 -0.18299,-0.43393 -0.426789,-0.938 -0.541777,-1.12015 -0.114987,-0.18215 -0.209781,-0.37957 -0.210652,-0.4387 -0.0031,-0.20744 -0.728308,-1.46184 -0.859829,-1.48717 -0.123878,-0.0238 -1.233067,1.83114 -2.444993,4.08898 -0.553607,1.03138 -0.65533,1.15664 -0.914902,1.12658 -0.200989,-0.0233 -0.228478,-0.0689 -0.27085,-0.44924 -0.07223,-0.64841 -0.103677,-17.67757 -0.03445,-18.65405 0.03349,-0.47235 0.110034,-0.92612 0.170102,-1.00839 0.09145,-0.12524 0.340961,-0.16524 1.534359,-0.24599 0.78383,-0.053 2.137263,-0.14463 3.007629,-0.20353 1.449085,-0.0981 1.600752,-0.0951 1.799167,0.0349 0.12942,0.0848 0.216682,0.2211 0.216682,0.33844 0,0.45289 0.384349,1.32015 0.826352,1.86463 0.13345,0.16438 0.190197,0.3297 0.172963,0.50388 -0.04075,0.41182 -0.395118,0.56304 -1.460816,0.62339 -0.877275,0.0497 -0.897551,0.0555 -0.950888,0.27075 -0.02997,0.12099 -0.234444,0.42954 -0.454379,0.68565 -0.477964,0.5566 -0.661553,0.90788 -0.97347,1.86267 -0.207552,0.63532 -0.235925,0.85362 -0.242098,1.86267 -0.0061,1.00146 0.02187,1.24649 0.226062,1.97876 0.262805,0.94246 0.678382,1.78584 0.993623,2.0165 0.17579,0.12862 0.549051,0.17776 2.201333,0.28981 2.402143,0.1629 6.687413,0.12315 7.085446,-0.0657 0.298031,-0.14142 0.569515,-0.899 0.749109,-2.09041 0.18612,-1.23471 0.159105,-2.30835 -0.08832,-3.51017 -0.260832,-1.26692 -0.453237,-1.58244 -1.222945,-2.00545 -0.553542,-0.30421 -0.639273,-0.39567 -0.715105,-0.76285 -0.07667,-0.37126 -0.41153,-0.48586 -1.617227,-0.55348 -1.099485,-0.0617 -1.101623,-0.0622 -2.044743,-0.50587 -0.598534,-0.28157 -0.995833,-0.52308 -1.085422,-0.65981 -0.416516,-0.63569 -0.698938,-2.03264 -0.452315,-2.23732 0.07649,-0.0635 0.911089,-0.14839 2.255557,-0.22946 1.173777,-0.0708 2.219223,-0.14795 2.323214,-0.17149 0.103991,-0.0235 1.751174,-0.11988 3.660407,-0.21412 1.909234,-0.0942 4.138084,-0.22753 4.953,-0.29621 1.407649,-0.11864 4.489195,-0.31642 6.604001,-0.42386 0.535516,-0.0272 1.297516,-0.0865 1.693333,-0.13185 0.69103,-0.0791 2.689361,-0.21486 6.312104,-0.42883 0.933777,-0.0551 1.798837,-0.0749 1.922357,-0.0439 0.12352,0.031 0.3249,0.18788 0.4475,0.34861 0.21272,0.2789 0.23233,0.39584 0.42936,2.56051 0.11354,1.24754 0.1851,2.42326 0.15902,2.6127 -0.0769,0.55813 -0.48534,1.30234 -1.10945,2.02133 -0.84695,0.97569 -1.11523,1.09438 -2.594631,1.1479 -1.240644,0.0449 -1.3288,0.0768 -1.33163,0.48191 -6.78e-4,0.10206 -0.188931,0.39999 -0.418264,0.66206 -0.493698,0.56418 -1.037805,1.57588 -1.22892,2.28503 -0.224101,0.83155 -0.264348,2.1715 -0.09438,3.1423 0.308753,1.76351 0.528442,2.41021 0.871935,2.56671 0.390135,0.17776 4.04651,0.35603 6.16001,0.30034 2.18878,-0.0577 2.43375,-0.11245 2.78629,-0.623 0.4655,-0.67413 0.62155,-1.27877 0.72371,-2.80402 0.0557,-0.83183 0.0429,-1.21235 -0.06,-1.778 -0.13023,-0.71599 -0.59756,-2.01296 -0.99398,-2.7585 -0.1143,-0.21496 -0.23269,-0.52344 -0.26309,-0.68551 -0.0693,-0.36929 -0.16935,-0.40908 -1.33908,-0.53255 -0.94643,-0.0999 -1.34348,-0.23044 -1.43626,-0.47223 -0.10739,-0.27986 -0.0438,-0.46169 0.30024,-0.85889 0.61764,-0.71301 0.74843,-1.11596 0.83572,-2.57463 0.0768,-1.28315 0.1266,-1.46486 0.42776,-1.56045 0.22619,-0.0718 0.20199,-0.20924 -0.0369,-0.20924 -0.35478,0 -0.47879,-0.24412 -0.47879,-0.94254 0,-0.80012 0.2214,-1.27611 0.96677,-2.07848 l 0.5315,-0.57216 2.97474,-0.16232 c 2.38947,-0.13039 2.99989,-0.14145 3.10257,-0.0562 0.11353,0.0942 0.12328,2.2058 0.0871,18.86339 -0.0377,17.35003 -0.0514,18.76899 -0.18183,18.91315 -0.1655,0.18288 -0.28466,0.19543 -0.47491,0.05 z m 0.4861,-18.97162 c 0.0352,-16.05205 0.0241,-18.69657 -0.0786,-18.736 -0.0658,-0.0253 -1.40502,0.0253 -2.97602,0.11239 l -2.85637,0.1583 -0.4902,0.53297 c -0.68361,0.74326 -0.92144,1.2502 -0.92144,1.96405 0,0.60251 0.0642,0.71912 0.42333,0.76879 0.32759,0.0453 0.33074,0.36625 0.005,0.53457 -0.14259,0.0737 -0.26029,0.16166 -0.26155,0.19539 -0.001,0.0337 -0.0367,0.62367 -0.0788,1.31099 -0.0872,1.42421 -0.22258,1.83614 -0.83603,2.54432 -0.38512,0.44459 -0.42105,0.5707 -0.21991,0.77184 0.17172,0.17172 0.31542,0.20486 1.45203,0.33487 0.5199,0.0595 1.00064,0.15407 1.06831,0.21023 0.0677,0.0562 0.14709,0.23035 0.17649,0.38709 0.0294,0.15674 0.14698,0.46085 0.26127,0.67581 0.3922,0.73762 0.86319,2.03941 0.99803,2.75851 0.21706,1.15749 0.0537,3.21893 -0.32787,4.13637 -0.21247,0.51092 -0.55805,0.94754 -0.87731,1.10845 -0.69791,0.35175 -7.99274,0.25663 -8.708601,-0.11356 -0.376033,-0.19445 -0.596902,-0.83064 -0.910753,-2.62331 -0.172054,-0.98275 -0.129576,-2.4915 0.09325,-3.31229 0.193004,-0.71091 0.737207,-1.72196 1.22993,-2.28503 0.234863,-0.26839 0.416967,-0.55971 0.416967,-0.66704 0,-0.10481 0.05397,-0.26452 0.11993,-0.35491 0.105806,-0.14499 0.25788,-0.16934 1.291167,-0.20668 1.009761,-0.0365 1.2276,-0.0701 1.58011,-0.24364 0.46032,-0.22663 1.38575,-1.24251 1.70755,-1.87445 0.39213,-0.77004 0.39897,-0.89928 0.17836,-3.37283 -0.1802,-2.02057 -0.22609,-2.32252 -0.38739,-2.54905 -0.2983,-0.41893 0.10543,-0.41563 -5.759727,-0.047 -1.094317,0.0688 -2.313517,0.16209 -2.709333,0.20738 -0.395817,0.0453 -1.157817,0.1046 -1.693334,0.1318 -2.114806,0.10744 -5.196352,0.30522 -6.604,0.42386 -0.814917,0.0687 -3.043767,0.20198 -4.953,0.29622 -1.909234,0.0942 -3.556417,0.19059 -3.660407,0.21412 -0.103991,0.0235 -1.151275,0.10081 -2.327298,0.17173 -1.176023,0.0709 -2.174987,0.1657 -2.219919,0.21063 -0.122173,0.12218 0.06732,1.08968 0.322652,1.6474 l 0.217545,0.47519 0.955047,0.44929 0.955046,0.4493 1.100667,0.0611 c 1.227973,0.0682 1.609598,0.20852 1.700547,0.62547 0.0271,0.12421 0.06339,0.27204 0.08065,0.3285 0.01726,0.0565 0.252205,0.21457 0.522095,0.35134 0.854432,0.43303 1.05557,0.75167 1.339475,2.12202 0.338571,1.63422 0.261147,3.49648 -0.208246,5.00887 -0.247476,0.79738 -0.341675,0.85909 -1.426913,0.9348 -1.485516,0.10363 -4.507837,0.0788 -6.452608,-0.053 -1.001183,-0.0679 -1.845985,-0.1242 -1.877337,-0.12519 -0.03135,-0.001 -0.176246,-0.10215 -0.321987,-0.22478 -0.354941,-0.29866 -0.720382,-1.04629 -0.999684,-2.04518 -0.204076,-0.72984 -0.229125,-0.96007 -0.223033,-2.04985 0.0062,-1.10334 0.03073,-1.30056 0.242553,-1.94734 0.309727,-0.94573 0.495408,-1.30229 0.967517,-1.8579 0.2154,-0.2535 0.429738,-0.57735 0.476304,-0.71967 l 0.08467,-0.25876 0.9089,-0.0607 c 1.343775,-0.0897 1.675977,-0.32973 1.225304,-0.88533 -0.439216,-0.54148 -0.821871,-1.40891 -0.821871,-1.86307 0,-0.358 -0.258049,-0.39663 -1.875957,-0.28084 -0.807606,0.0578 -2.103507,0.14802 -2.879776,0.2005 -0.776271,0.0525 -1.442367,0.12651 -1.480214,0.16451 -0.03785,0.038 -0.09573,0.32376 -0.128617,0.635 -0.06788,0.64236 -0.07565,17.67638 -0.0085,18.62528 0.0589,0.83221 0.181072,0.78766 0.766131,-0.27938 1.028951,-1.87662 2.40553,-4.26816 2.503626,-4.34957 0.204066,-0.16936 0.505237,0.10395 0.874803,0.79387 0.199465,0.37237 0.363375,0.72542 0.364246,0.78455 8.72e-4,0.0591 0.09646,0.25781 0.21242,0.4415 0.11596,0.18369 0.342836,0.64966 0.504169,1.03549 0.161334,0.38582 0.591665,1.38729 0.956292,2.22549 0.802418,1.84459 0.806595,1.84737 1.49056,0.99014 0.257158,-0.3223 0.618449,-0.7055 0.802869,-0.85157 0.538291,-0.42633 0.784559,-0.35455 1.088726,0.31734 0.286726,0.63336 0.794428,1.86415 1.26133,3.05776 0.209477,0.53552 0.470666,1.16417 0.58042,1.397 0.109756,0.23283 0.226274,0.51859 0.258931,0.635 0.106566,0.37989 0.672847,1.4591 0.789006,1.50367 0.168475,0.0647 0.290991,-0.11193 0.657505,-0.94765 1.373679,-3.13226 4.719767,-9.18457 5.081068,-9.1905 0.20387,-0.003 0.684376,0.78846 0.912816,1.50418 0.07853,0.24605 0.485184,1.10027 0.90367,1.89826 0.418486,0.79799 0.818645,1.62103 0.889242,1.82896 0.0706,0.20794 0.203254,0.47329 0.294793,0.58966 0.09154,0.11638 0.166435,0.24527 0.166435,0.28644 0,0.0412 0.192613,0.47419 0.42803,0.96225 0.306363,0.63516 0.47096,0.8874 0.579066,0.8874 0.08307,0 0.292877,-0.1533 0.466236,-0.34067 l 0.3152,-0.34067 0.221012,0.17385 c 0.221997,0.17462 0.357964,0.36894 0.532713,0.76133 0.05181,0.11633 0.152218,0.27563 0.223134,0.35399 0.07092,0.0784 0.19209,0.25799 0.269274,0.39917 0.163324,0.29875 0.779324,1.22859 1.011109,1.52626 0.104242,0.13387 0.208357,0.18621 0.300274,0.15094 0.07739,-0.0297 0.577231,-0.71247 1.110765,-1.51727 1.144015,-1.72566 1.892043,-2.69093 2.085317,-2.69093 0.07659,0 0.284347,0.1153 0.461684,0.25624 0.177338,0.14093 0.363552,0.24375 0.41381,0.22848 0.05026,-0.0153 0.491426,-0.6214 0.980376,-1.34698 1.231024,-1.82678 1.658707,-2.37753 2.453428,-3.15941 l 0.688459,-0.67733 0.24939,0.2765 c 0.137164,0.15208 0.250193,0.36163 0.251175,0.46567 0.0024,0.25094 0.379974,1.3129 0.529534,1.48923 0.126201,0.14879 0.240545,0.44073 0.386161,0.98593 0.254684,0.95358 0.429964,1.46889 0.918924,2.70157 0.29384,0.7408 0.53426,1.43764 0.53426,1.54854 0,0.1109 0.0746,0.34777 0.16566,0.52637 0.23922,0.4689 0.51158,1.20945 0.51163,1.39113 2e-5,0.0859 0.0524,0.25739 0.11629,0.381 0.15898,0.30735 0.36163,0.76407 0.73837,1.66406 0.17544,0.4191 0.37617,0.79826 0.44607,0.84259 0.0988,0.0626 0.29343,-0.0964 0.8737,-0.7137 0.98902,-1.05217 2.4277,-2.11856 2.85819,-2.11856 0.15363,0 0.6034,0.75177 0.73403,1.22689 0.0511,0.18584 0.16516,0.43937 0.25348,0.56341 0.0883,0.12403 0.16058,0.25522 0.16058,0.29154 0,0.0656 0.15372,0.41196 0.57907,1.30483 0.12201,0.25612 0.36475,0.70327 0.53943,0.99368 0.17468,0.29041 0.37473,0.65236 0.44455,0.80434 0.17958,0.39084 0.8035,1.36443 0.92092,1.43704 0.31318,0.19364 0.3091,0.41246 0.35136,-18.84118 z m -12.301063,-3.29148 c -0.141513,-0.14152 -0.127892,-1.08012 0.02871,-1.97812 0.144272,-0.82732 0.219257,-0.96828 0.515061,-0.96828 h 0.2013 l -0.169333,-0.16934 c -0.302405,-0.3024 -0.155325,-0.762 0.243856,-0.762 0.463826,0 0.721929,0.64698 0.33972,0.85154 -0.13048,0.0698 -0.15323,0.12068 -0.08467,0.18924 0.112702,0.1127 0.119547,1.29828 0.0123,2.13098 -0.05153,0.40009 -0.123827,0.62447 -0.225078,0.6985 -0.187855,0.13737 -0.727303,0.14204 -0.86187,0.007 z m 0.731387,-0.14216 c 0.143103,-0.0907 0.284602,-1.22249 0.250736,-2.00553 l -0.02539,-0.58705 h -0.294353 c -0.28739,0 -0.296882,0.011 -0.401251,0.46567 -0.131243,0.57172 -0.23643,1.8824 -0.165833,2.06637 0.05567,0.14509 0.44434,0.18208 0.63609,0.0605 z m 0.303088,-3.02497 c 0.158451,-0.0608 0.17576,-0.29624 0.03233,-0.43967 -0.09457,-0.0946 -0.4064,-0.14536 -0.4064,-0.0662 0,0.0195 -0.02124,0.0908 -0.0472,0.15841 -0.02596,0.0677 0.01486,0.18507 0.09071,0.26093 0.157046,0.15704 0.150949,0.15545 0.330563,0.0865 z m -2.431569,3.03333 c -0.267924,-0.29605 -0.143424,-2.48562 0.160424,-2.82137 0.20961,-0.23161 0.673056,-0.21364 0.834236,0.0323 0.107768,0.16447 0.112923,0.34234 0.03497,1.2065 -0.05029,0.55747 -0.134867,1.16598 -0.187951,1.35225 -0.08697,0.30516 -0.126262,0.34117 -0.397177,0.36394 -0.210073,0.0177 -0.344,-0.0226 -0.4445,-0.13367 z m 0.689143,-0.3361 c 0.136891,-0.56075 0.251556,-2.16901 0.166366,-2.33341 -0.120795,-0.23312 -0.506814,-0.15446 -0.643012,0.13104 -0.06082,0.12749 -0.133527,0.68815 -0.161572,1.24592 -0.05534,1.1006 -0.006,1.27395 0.362673,1.27395 0.158618,0 0.213464,-0.0632 0.275545,-0.3175 z m 2.691554,0.0758 c -0.14163,-0.15674 -0.1522,-0.26346 -0.0994,-1.004 0.0648,-0.90932 0.17727,-1.43574 0.5659,-2.64895 0.3274,-1.02208 0.51933,-1.22199 1.25291,-1.30499 0.72254,-0.0817 2.06694,0.10037 2.40865,0.32628 0.51852,0.3428 1.19385,2.13971 1.29554,3.44713 0.048,0.61694 0.0398,0.65866 -0.16934,0.86784 -0.21876,0.21876 -0.2261,0.21976 -1.64176,0.22346 -1.29175,0.003 -1.68047,0.0305 -3.03068,0.21178 -0.36342,0.0488 -0.44576,0.032 -0.5818,-0.11855 z m 1.51313,-0.18618 c 0.32597,-0.04 1.23084,-0.0743 2.01083,-0.0764 1.33179,-0.003 1.42916,-0.0147 1.59863,-0.18417 0.1611,-0.1611 0.17477,-0.24167 0.12742,-0.75106 -0.11021,-1.18581 -0.77042,-2.98784 -1.19709,-3.26741 -0.31326,-0.20526 -1.57118,-0.38603 -2.22999,-0.32046 -0.72214,0.0719 -0.86737,0.22083 -1.18689,1.21739 -0.37501,1.16965 -0.49757,1.72834 -0.5625,2.56419 -0.0709,0.91314 -0.005,1.03656 0.50417,0.94928 0.18852,-0.0323 0.60945,-0.0914 0.93542,-0.13137 z m -32.533027,-2.79828 c -0.197833,-0.0979 -0.455008,-0.29132 -0.5715,-0.42976 -0.197825,-0.23511 -0.211807,-0.3131 -0.211807,-1.18151 0,-1.55965 0.317036,-3.06253 0.70309,-3.33293 0.137148,-0.0961 0.433729,-0.12696 1.218797,-0.12696 1.015231,0 1.040547,0.005 1.177215,0.21317 0.130864,0.19972 0.128247,0.2678 -0.0415,1.0795 -0.09964,0.47648 -0.221291,1.38068 -0.270328,2.00933 -0.0569,0.72943 -0.134478,1.21299 -0.214411,1.33642 -0.141068,0.21783 -0.935179,0.61095 -1.233938,0.61085 -0.10776,-4e-5 -0.357788,-0.0802 -0.555618,-0.17811 z m 1.12236,-0.1995 c 0.250516,-0.11459 0.492938,-0.27833 0.538715,-0.36386 0.04578,-0.0855 0.125569,-0.68573 0.177316,-1.33378 0.05175,-0.64804 0.168022,-1.51702 0.258389,-1.93107 0.233233,-1.06863 0.228866,-1.07361 -0.941299,-1.07361 -0.513656,0 -1.004379,0.0377 -1.090495,0.0838 -0.344365,0.1843 -0.678959,1.76218 -0.678959,3.20184 0,0.96706 0.08483,1.14303 0.697166,1.44613 0.453489,0.22447 0.486087,0.22354 1.039167,-0.0294 z m 26.88525,0.2558 c -0.05563,-0.067 -0.08887,-0.22896 -0.07387,-0.35984 0.02395,-0.20886 0.06682,-0.24121 0.350693,-0.26458 0.177875,-0.0146 0.3779,0.0186 0.4445,0.0739 0.147481,0.1224 0.158061,0.43226 0.01949,0.57083 -0.140607,0.1406 -0.618143,0.12753 -0.740818,-0.0203 z m 0.630751,-0.25912 c 0,-0.12916 -0.06529,-0.17563 -0.275167,-0.19587 -0.223052,-0.0215 -0.275166,0.004 -0.275166,0.13406 0,0.22134 0.08404,0.28552 0.335498,0.25619 0.150039,-0.0175 0.214835,-0.0761 0.214835,-0.19438 z m 1.231916,-0.50288 c -0.05563,-0.067 -0.08887,-0.22896 -0.07387,-0.35984 0.02456,-0.21423 0.06311,-0.24054 0.386723,-0.26397 0.315437,-0.0228 0.371497,4.3e-4 0.457937,0.19016 0.0822,0.18043 0.0731,0.24423 -0.0551,0.38585 -0.1788,0.19756 -0.569769,0.22367 -0.715733,0.0478 z m 0.56487,-0.14244 c 0.15313,-0.15313 0.0253,-0.32835 -0.239511,-0.32835 -0.181075,0 -0.244942,0.0405 -0.244942,0.15522 0,0.0854 0.0254,0.18062 0.05644,0.21167 0.08773,0.0877 0.322914,0.0666 0.428013,-0.0385 z m -27.841916,1.7e-4 c -0.166239,-0.16624 -0.175092,-0.23531 -0.120164,-0.93747 0.05962,-0.76208 0.387016,-2.29108 0.564282,-2.63528 0.231929,-0.45033 0.420144,-0.56579 0.922314,-0.56579 0.364121,0 0.515282,0.0388 0.625659,0.16082 0.18152,0.20058 0.355142,0.82912 0.516872,1.87118 0.278564,1.79484 0.183875,1.98065 -1.102167,2.16282 -1.113764,0.15777 -1.196036,0.15448 -1.406796,-0.0563 z m 1.321406,-0.11295 c 1.219793,-0.17279 1.272376,-0.27137 1.018224,-1.90892 -0.148287,-0.95544 -0.329602,-1.65498 -0.474077,-1.82906 -0.07348,-0.0885 -0.2324,-0.11869 -0.532716,-0.10106 -0.376492,0.0221 -0.450447,0.0585 -0.614546,0.3027 -0.222036,0.3304 -0.589975,1.8344 -0.668999,2.73463 -0.04716,0.53719 -0.03328,0.66457 0.08531,0.78316 0.169204,0.16921 0.127825,0.16856 1.186806,0.0186 z m 24.403198,0.15533 c -0.0954,-0.0954 -0.07055,-0.41164 0.04113,-0.52332 0.258452,-0.25845 0.697703,-0.0284 0.645732,0.33824 -0.02208,0.15576 -0.08811,0.20025 -0.327025,0.22036 -0.164648,0.0138 -0.326573,-0.002 -0.359833,-0.0353 z m 0.516075,-0.26509 c -0.01569,-0.0815 -0.103691,-0.14816 -0.195549,-0.14816 -0.09186,0 -0.179855,0.0667 -0.195549,0.14816 -0.02137,0.11098 0.02771,0.14817 0.195549,0.14817 0.167838,0 0.216921,-0.0372 0.195549,-0.14817 z m -23.004108,-0.0888 c -0.04483,-0.0838 -0.104194,-0.3981 -0.131913,-0.6985 -0.02772,-0.3004 -0.132567,-1.06744 -0.232999,-1.70453 -0.150978,-0.95773 -0.163511,-1.18134 -0.07237,-1.29116 0.163814,-0.19739 1.914923,-0.19183 2.198755,0.007 0.432285,0.30279 1.019596,1.96641 1.022163,2.8954 0.0011,0.39824 -0.03047,0.48249 -0.261703,0.6985 -0.261954,0.2447 -0.26709,0.24563 -1.351687,0.24563 -0.961529,0 -1.098258,-0.0178 -1.17025,-0.15231 z m 2.391528,-0.22464 c 0.17589,-0.16301 0.223761,-0.28582 0.222779,-0.5715 -0.0029,-0.83315 -0.630604,-2.57129 -1.000036,-2.76901 -0.265328,-0.142 -1.871501,-0.1217 -1.92755,0.0244 -0.02467,0.0643 0.01604,0.43576 0.09046,0.8255 0.07443,0.38973 0.171824,1.08759 0.21644,1.5508 0.120542,1.2515 0.01395,1.14749 1.175943,1.14749 0.941929,0 1.010503,-0.0117 1.221961,-0.20762 z m -13.418104,-9.33125 c -0.09122,-0.1106 -0.110758,-0.47004 -0.09089,-1.67217 0.02457,-1.48649 0.03116,-1.53653 0.225129,-1.71109 0.142429,-0.12817 0.366158,-0.19653 0.779019,-0.23803 0.318563,-0.032 1.43433,-0.15113 2.479482,-0.26469 1.045154,-0.11356 2.05919,-0.20646 2.253417,-0.20646 0.448382,0 0.672885,0.17515 1.136435,0.88663 0.40447,0.62081 0.408872,0.71152 0.08846,1.8227 -0.08728,0.30268 -0.181248,0.65463 -0.208817,0.78209 -0.09374,0.43344 -0.244107,0.46514 -2.88607,0.60853 -3.199964,0.17367 -3.627439,0.17282 -3.776167,-0.008 z m 3.524467,-0.15504 c 1.210734,-0.0685 2.298826,-0.12525 2.417985,-0.12601 0.357103,-0.002 0.492031,-0.17903 0.679772,-0.89039 0.389412,-1.47552 0.390471,-1.33663 -0.01494,-1.95887 -0.489397,-0.75116 -0.623869,-0.82877 -1.329425,-0.76727 -2.172664,0.18935 -4.827737,0.51499 -4.978578,0.61061 -0.164057,0.10399 -0.180953,0.21368 -0.228078,1.48075 -0.02854,0.7674 -0.01672,1.45833 0.02692,1.5731 0.07178,0.18881 0.122283,0.2046 0.651412,0.20369 0.315478,-5.1e-4 1.564196,-0.0571 2.774929,-0.12561 z m 35.280604,-0.0597 c -0.14936,-0.14936 -0.12436,-0.35464 0.0739,-0.60665 0.18812,-0.23916 0.40554,-0.28553 0.56958,-0.12148 0.14936,0.14935 0.12436,0.35463 -0.0739,0.60664 -0.18813,0.23916 -0.40555,0.28553 -0.56959,0.12149 z m 0.45408,-0.27568 c 0.13211,-0.20163 0.10797,-0.38472 -0.0507,-0.38472 -0.11986,0 -0.35711,0.40474 -0.29559,0.50428 0.0878,0.14205 0.20037,0.10319 0.34632,-0.11956 z m -30.91414,-0.17305 c -0.0681,-0.16299 -0.160527,-0.29634 -0.205395,-0.29634 -0.04487,0 -0.141197,-0.091 -0.214063,-0.20219 -0.121374,-0.18524 -0.117594,-0.27527 0.04507,-1.0735 0.198864,-0.97585 0.471655,-1.62642 0.821879,-1.96008 0.217022,-0.20675 0.350352,-0.23782 1.71696,-0.40006 1.715128,-0.20361 2.980796,-0.33669 6.096001,-0.64094 1.234016,-0.12053 2.489388,-0.25725 2.789713,-0.30384 0.613841,-0.0952 2.16103,-0.26415 4.23762,-0.4627 0.76835,-0.0735 2.17805,-0.24392 3.132667,-0.3788 0.954617,-0.13487 3.126317,-0.39963 4.826,-0.58836 1.699684,-0.18873 3.623734,-0.41758 4.275658,-0.50857 0.65194,-0.091 2.59504,-0.32089 4.318,-0.51091 1.72297,-0.19002 3.20887,-0.36258 3.302,-0.38347 0.25238,-0.0566 2.47579,-0.29124 2.75975,-0.29124 0.13525,0 0.32412,0.0782 0.41969,0.17376 0.16901,0.16902 0.17307,0.2465 0.14817,2.83223 -0.0197,2.04062 -0.0512,2.684 -0.13565,2.76837 -0.0758,0.0757 -0.77352,0.15452 -2.24367,0.25334 -1.17349,0.0789 -2.68607,0.1839 -3.36129,0.23338 -0.67521,0.0495 -2.44686,0.16686 -3.937,0.26085 -1.49012,0.094 -3.090324,0.20608 -3.555991,0.24911 -0.841697,0.0778 -2.296809,0.17123 -5.291667,0.33989 -0.861483,0.0485 -1.871133,0.12589 -2.243667,0.17194 -0.372533,0.0461 -2.391833,0.17911 -4.487333,0.29568 -2.0955,0.11657 -4.1529,0.25004 -4.572,0.29661 -0.873982,0.0971 -6.971979,0.42338 -7.899488,0.42265 l -0.618153,-5.1e-4 -0.123816,-0.29633 z m 4.535123,-0.0413 c 1.792817,-0.0931 3.602567,-0.20733 4.021667,-0.2539 0.4191,-0.0466 2.4765,-0.18005 4.572,-0.29661 2.0955,-0.11657 4.1148,-0.24963 4.487334,-0.29568 0.372533,-0.0461 1.382183,-0.12343 2.243666,-0.17195 2.994859,-0.16866 4.44997,-0.26212 5.291667,-0.33989 0.465667,-0.043 2.065867,-0.15512 3.556003,-0.24911 1.49013,-0.094 3.26178,-0.21136 3.937,-0.26084 0.67521,-0.0495 2.18652,-0.15449 3.35846,-0.23336 1.17194,-0.0789 2.16254,-0.17508 2.20133,-0.21382 0.08,-0.0798 0.14873,-4.89751 0.0741,-5.19477 -0.0268,-0.10698 -0.13481,-0.21489 -0.24189,-0.24177 -0.17232,-0.0433 -2.53203,0.17039 -2.85202,0.25821 -0.0699,0.0192 -1.5367,0.18975 -3.25967,0.37907 -1.72297,0.18932 -3.66607,0.41866 -4.318,0.50965 -0.651933,0.091 -2.575983,0.31984 -4.275666,0.50856 -1.699684,0.18873 -3.871384,0.4535 -4.826,0.58837 -0.954617,0.13487 -2.364317,0.30533 -3.132667,0.37879 -2.07659,0.19855 -3.623779,0.36749 -4.23762,0.4627 -0.300326,0.0466 -1.555697,0.18332 -2.789714,0.30384 -4.108147,0.40123 -7.377626,0.76404 -7.589876,0.84223 -0.181434,0.0668 -0.544302,0.62166 -0.703864,1.07619 -0.08753,0.24935 -0.215839,0.75403 -0.28513,1.12152 l -0.125983,0.66816 0.236378,0.22084 c 0.130008,0.12146 0.262367,0.30656 0.294132,0.41134 0.07362,0.24283 0.111617,0.24302 4.364343,0.0222 z m -12.8524,-4.16667 c -0.07493,-0.0749 -0.1016,-0.8381 -0.1016,-2.90788 0,-2.73947 0.0042,-2.81009 0.177041,-2.96649 0.192618,-0.17432 -0.778084,-0.17185 36.514616,-0.0929 l 9.89467,0.021 0.1595,0.19698 c 0.32905,0.40636 0.096,0.79731 -0.52768,0.8853 -0.20413,0.0288 -1.55225,0.16854 -2.99581,0.31053 -1.44357,0.14199 -2.85327,0.2947 -3.13267,0.33936 -0.2794,0.0447 -1.651,0.19689 -3.048,0.3383 -1.396999,0.14142 -2.997199,0.31297 -3.555999,0.38124 -0.558801,0.0683 -2.776146,0.31355 -4.927434,0.54509 -2.151289,0.23153 -3.999139,0.44087 -4.106333,0.4652 -0.107196,0.0243 -1.852251,0.21705 -3.877901,0.42827 -2.02565,0.21122 -3.74015,0.40097 -3.81,0.42167 -0.06985,0.0207 -1.47955,0.17288 -3.132667,0.33819 -1.653116,0.16531 -3.615266,0.37568 -4.360333,0.4675 -1.136294,0.14002 -8.779579,0.93024 -8.997677,0.93024 -0.03857,0 -0.115843,-0.0457 -0.171723,-0.1016 z m 4.3434,-0.49332 c 1.862667,-0.18566 3.996267,-0.41272 4.741333,-0.50458 0.745067,-0.0919 2.707217,-0.30226 4.360334,-0.46757 1.653117,-0.16531 3.062817,-0.3175 3.132667,-0.33819 0.06985,-0.0207 1.78435,-0.21045 3.81,-0.42167 2.02565,-0.21122 3.770704,-0.40394 3.8779,-0.42827 0.107195,-0.0243 1.955045,-0.23367 4.106333,-0.46521 2.151288,-0.23153 4.368634,-0.47682 4.927434,-0.54509 0.5588,-0.0683 2.159,-0.23982 3.555996,-0.38123 1.397,-0.14142 2.7686,-0.29365 3.048,-0.33831 0.2794,-0.0447 1.6891,-0.19736 3.13267,-0.33935 3.21962,-0.31669 3.32304,-0.33108 3.47553,-0.48356 0.1523,-0.1523 0.15306,-0.20631 0.006,-0.40779 -0.11382,-0.15566 -0.49597,-0.16094 -13.7795,-0.19034 -30.088971,-0.0666 -32.390525,-0.0625 -32.535151,0.0575 -0.118369,0.0982 -0.134943,0.44696 -0.134943,2.83918 0,1.49996 0.02778,2.75497 0.06172,2.78891 0.03395,0.034 0.233972,0.0396 0.4445,0.0124 0.210527,-0.0271 1.906777,-0.2012 3.769444,-0.38686 z"
       id="path1265" /></g></svg>
