<?xml version="1.0" encoding="UTF-8" standalone="no"?>
<!-- Created with Inkscape (http://www.inkscape.org/) -->

<svg
   width="210mm"
   height="297mm"
   viewBox="0 0 210 297"
   version="1.1"
   id="svg5"
   inkscape:version="1.3.2 (091e20e, 2023-11-25)"
   sodipodi:docname="earrings.svg"
   xmlns:inkscape="http://www.inkscape.org/namespaces/inkscape"
   xmlns:sodipodi="http://sodipodi.sourceforge.net/DTD/sodipodi-0.dtd"
   xmlns="http://www.w3.org/2000/svg"
   xmlns:svg="http://www.w3.org/2000/svg">
  <sodipodi:namedview
     id="namedview7"
     pagecolor="#ffffff"
     bordercolor="#666666"
     borderopacity="1.0"
     inkscape:showpageshadow="2"
     inkscape:pageopacity="0.0"
     inkscape:pagecheckerboard="0"
     inkscape:deskcolor="#d1d1d1"
     inkscape:document-units="mm"
     showgrid="true"
     inkscape:zoom="2.246568"
     inkscape:cx="298.45524"
     inkscape:cy="184.50365"
     inkscape:window-width="1920"
     inkscape:window-height="1115"
     inkscape:window-x="0"
     inkscape:window-y="0"
     inkscape:window-maximized="1"
     inkscape:current-layer="layer2">
    <inkscape:grid
       type="xygrid"
       id="grid9"
       units="mm"
       dotted="true"
       empspacing="2"
       snapvisiblegridlinesonly="false"
       spacingx="5"
       spacingy="5"
       originx="0"
       originy="0"
       visible="true" />
  </sodipodi:namedview>
  <defs
     id="defs2" />
  <g
     inkscape:label="Cuts"
     inkscape:groupmode="layer"
     id="layer1">
    <path
       style="fill:none;stroke:#000000;stroke-width:0.264583px;stroke-linecap:butt;stroke-linejoin:miter;stroke-opacity:1"
       d="m 66.372824,37.116578 h 5 l 10.000001,40 h -25 l 9.999999,-40"
       id="path166-3"
       sodipodi:nodetypes="ccccc" />
    <path
       id="path357"
       style="fill:none;fill-rule:evenodd;stroke:#000000;stroke-width:0.264583;stroke-opacity:1"
       d="m 70.658839,40.486741 a 1.7860138,1.7860138 0 0 1 -1.786014,1.786014 1.7860138,1.7860138 0 0 1 -1.786014,-1.786014 1.7860138,1.7860138 0 0 1 1.786014,-1.786014 1.7860138,1.7860138 0 0 1 1.786014,1.786014 z" />
    <path
       style="fill:none;stroke:#000000;stroke-width:0.264583px;stroke-linecap:butt;stroke-linejoin:miter;stroke-opacity:1"
       d="m 28.406185,37.116578 h 5 l 10.000001,40 h -25 l 9.999999,-40"
       id="path166-3-3"
       sodipodi:nodetypes="ccccc" />
    <path
       id="path357-5"
       style="fill:none;fill-rule:evenodd;stroke:#000000;stroke-width:0.264583;stroke-opacity:1"
       d="m 32.6922,40.486741 a 1.7860138,1.7860138 0 0 1 -1.786014,1.786014 1.7860138,1.7860138 0 0 1 -1.786014,-1.786014 1.7860138,1.7860138 0 0 1 1.786014,-1.786014 1.7860138,1.7860138 0 0 1 1.786014,1.786014 z" />
    <path
       style="fill:none;stroke:#000000;stroke-width:0.264583px;stroke-linecap:butt;stroke-linejoin:miter;stroke-opacity:1"
       d="m 104.33946,37.116578 h 5 l 10,40 H 94.339463 l 9.999997,-40"
       id="path166-3-3-9"
       sodipodi:nodetypes="ccccc" />
    <path
       id="path357-5-3"
       style="fill:none;fill-rule:evenodd;stroke:#000000;stroke-width:0.264583;stroke-opacity:1"
       d="m 108.62548,40.486741 a 1.7860138,1.7860138 0 0 1 -1.78602,1.786014 1.7860138,1.7860138 0 0 1 -1.78601,-1.786014 1.7860138,1.7860138 0 0 1 1.78601,-1.786014 1.7860138,1.7860138 0 0 1 1.78602,1.786014 z" />
    <path
       style="fill:none;stroke:#000000;stroke-width:0.264583px;stroke-linecap:butt;stroke-linejoin:miter;stroke-opacity:1"
       d="m 90.415018,76.450024 h -5 l -10.000001,-40 h 25.000003 l -10.000002,40"
       id="path166-3-2"
       sodipodi:nodetypes="ccccc" />
    <path
       id="path357-6"
       style="fill:none;fill-rule:evenodd;stroke:#000000;stroke-width:0.264583;stroke-opacity:1"
       d="m 86.129003,73.079861 a 1.7860138,1.7860138 0 0 1 1.786014,-1.786014 1.7860138,1.7860138 0 0 1 1.786014,1.786014 1.7860138,1.7860138 0 0 1 -1.786014,1.786014 1.7860138,1.7860138 0 0 1 -1.786014,-1.786014 z" />
    <path
       style="fill:none;stroke:#000000;stroke-width:0.264583px;stroke-linecap:butt;stroke-linejoin:miter;stroke-opacity:1"
       d="m 128.38166,76.450024 h -5 l -10,-40 h 25 l -10,40"
       id="path166-3-3-8"
       sodipodi:nodetypes="ccccc" />
    <path
       id="path357-5-7"
       style="fill:none;fill-rule:evenodd;stroke:#000000;stroke-width:0.264583;stroke-opacity:1"
       d="m 124.09564,73.079861 a 1.7860138,1.7860138 0 0 1 1.78602,-1.786014 1.7860138,1.7860138 0 0 1 1.78601,1.786014 1.7860138,1.7860138 0 0 1 -1.78601,1.786014 1.7860138,1.7860138 0 0 1 -1.78602,-1.786014 z" />
    <path
       style="fill:none;stroke:#000000;stroke-width:0.264583px;stroke-linecap:butt;stroke-linejoin:miter;stroke-opacity:1"
       d="m 52.44838,76.450024 h -5 l -10.000001,-40 h 25 l -9.999999,40"
       id="path166-3-3-9-2"
       sodipodi:nodetypes="ccccc" />
    <path
       id="path357-5-3-0"
       style="fill:none;fill-rule:evenodd;stroke:#000000;stroke-width:0.264583;stroke-opacity:1"
       d="m 48.162365,73.079861 a 1.7860138,1.7860138 0 0 1 1.786014,-1.786014 1.7860138,1.7860138 0 0 1 1.786014,1.786014 1.7860138,1.7860138 0 0 1 -1.786014,1.786014 1.7860138,1.7860138 0 0 1 -1.786014,-1.786014 z" />
  </g>
  <g
     inkscape:groupmode="layer"
     id="layer2"
     inkscape:label="Engravings">
    <path
       style="fill:none;stroke:#0000ff;stroke-width:0.264583px;stroke-linecap:butt;stroke-linejoin:miter;stroke-opacity:1"
       d="M 27.54522,77.488264 35.527837,45.315899"
       id="path1209" />
    <path
       style="fill:none;stroke:#0000ff;stroke-width:0.264583px;stroke-linecap:butt;stroke-linejoin:miter;stroke-opacity:1"
       d="m 20.053983,70.003952 h 9.324342"
       id="path1211" />
    <path
       style="fill:none;stroke:#0000ff;stroke-width:0.264583px;stroke-linecap:butt;stroke-linejoin:miter;stroke-opacity:1"
       d="m 21.698783,63.536744 h 9.324342"
       id="path1211-6" />
    <path
       style="fill:none;stroke:#0000ff;stroke-width:0.264583px;stroke-linecap:butt;stroke-linejoin:miter;stroke-opacity:1"
       d="m 23.19274,57.658592 h 9.324342"
       id="path1211-0" />
    <path
       style="fill:none;stroke:#0000ff;stroke-width:0.264583px;stroke-linecap:butt;stroke-linejoin:miter;stroke-opacity:1"
       d="m 61.236026,51.267613 c 10.936805,3.319697 11.707571,11.658834 7.740986,15.907424 -7.925338,8.48879 8.028971,14.212542 8.028971,14.212542"
       id="path1255" />
    <path
       style="fill:none;stroke:#0000ff;stroke-width:0.264583;stroke-opacity:1"
       id="path1358"
       sodipodi:type="arc"
       sodipodi:cx="106.83994"
       sodipodi:cy="77.16758"
       sodipodi:rx="8.6121368"
       sodipodi:ry="8.6121368"
       sodipodi:start="3.1415927"
       sodipodi:end="6.2684323"
       sodipodi:open="true"
       sodipodi:arc-type="arc"
       d="m 98.227806,77.16758 a 8.6121368,8.6121368 0 0 1 8.548614,-8.611903 8.6121368,8.6121368 0 0 1 8.67472,8.484852" />
    <path
       style="fill:none;stroke:#0000ff;stroke-width:0.264583px;stroke-linecap:butt;stroke-linejoin:miter;stroke-opacity:1"
       d="m 129.24262,36.078336 -7.98261,32.172367"
       id="path1209-2" />
    <path
       style="fill:none;stroke:#0000ff;stroke-width:0.264583px;stroke-linecap:butt;stroke-linejoin:miter;stroke-opacity:1"
       d="m 136.73386,43.56265 h -9.32434"
       id="path1211-3" />
    <path
       style="fill:none;stroke:#0000ff;stroke-width:0.264583px;stroke-linecap:butt;stroke-linejoin:miter;stroke-opacity:1"
       d="m 135.08906,50.029858 h -9.32434"
       id="path1211-6-7" />
    <path
       style="fill:none;stroke:#0000ff;stroke-width:0.264583px;stroke-linecap:butt;stroke-linejoin:miter;stroke-opacity:1"
       d="m 133.5951,55.90801 h -9.32434"
       id="path1211-0-5" />
    <path
       style="fill:none;stroke:#0000ff;stroke-width:0.264583px;stroke-linecap:butt;stroke-linejoin:miter;stroke-opacity:1"
       d="M 95.55182,62.298989 C 84.61501,58.979292 83.84425,50.640155 87.81083,46.391565 95.73617,37.902776 79.78186,32.179026 79.78186,32.179026"
       id="path1255-9"
       sodipodi:nodetypes="csc" />
    <path
       style="fill:none;stroke:#0000ff;stroke-width:0.264583;stroke-opacity:1"
       id="path1358-2"
       sodipodi:type="arc"
       sodipodi:cx="-49.947903"
       sodipodi:cy="-36.399021"
       sodipodi:rx="8.6121368"
       sodipodi:ry="8.6121368"
       sodipodi:start="3.1415927"
       sodipodi:end="6.2684323"
       sodipodi:open="true"
       sodipodi:arc-type="arc"
       d="m -58.56004,-36.399021 a 8.6121368,8.6121368 0 0 1 8.548611,-8.611903 8.6121368,8.6121368 0 0 1 8.674726,8.484853"
       transform="scale(-1)" />
  </g>
</svg>
